<?xml version="1.0" encoding="utf-8"?>
<svg viewBox="16.733 92.321 251.292 99.337" xmlns="http://www.w3.org/2000/svg">
  <defs>
    <style>.cls-1{fill:#1d1d1b;}.cls-2{fill:#06a538;}</style>
  </defs>
  <path class="cls-1" d="M133.4,133.82v18.56h7.42v5.24H127.21v-23.8Z"/>
  <path class="cls-1" d="M142.46,145.72a12.48,12.48,0,0,1,1-4.94,12.26,12.26,0,0,1,6.87-6.66,15,15,0,0,1,10.62,0,12.42,12.42,0,0,1,4.19,2.67,12,12,0,0,1,2.73,4,12.94,12.94,0,0,1,0,9.88,12.16,12.16,0,0,1-2.73,4,12.56,12.56,0,0,1-4.19,2.66,15,15,0,0,1-10.62,0,12.31,12.31,0,0,1-7.85-11.6Zm6.48,0a6.46,6.46,0,0,0,.53,2.62,6.57,6.57,0,0,0,3.59,3.46,6.9,6.9,0,0,0,7.29-1.37,6.59,6.59,0,0,0,1.47-2.09,6.63,6.63,0,0,0,0-5.24,6.55,6.55,0,0,0-1.47-2.08,6.83,6.83,0,0,0-2.15-1.38,7,7,0,0,0-5.14,0,6.66,6.66,0,0,0-3.59,3.46A6.46,6.46,0,0,0,148.94,145.72Z"/>
  <path class="cls-1" d="M186.41,153.49h-8.84l-1.42,4.13h-6.6l9.06-23.8h6.76l9.06,23.8h-6.6Zm-1.64-4.71L182,140.86l-2.78,7.92Z"/>
  <path class="cls-1" d="M197.15,133.82h9.15a10.72,10.72,0,0,1,4.57,1,12.39,12.39,0,0,1,3.72,2.6,12.22,12.22,0,0,1,2.51,3.79,11.66,11.66,0,0,1,0,9,11.9,11.9,0,0,1-2.5,3.8,12.31,12.31,0,0,1-3.72,2.63,10.9,10.9,0,0,1-4.6,1h-9.15Zm6.19,18.56h1.42a7.81,7.81,0,0,0,2.87-.5,6.2,6.2,0,0,0,2.13-1.39,6,6,0,0,0,1.33-2.1,7.63,7.63,0,0,0,.46-2.67,7.21,7.21,0,0,0-.48-2.65,6,6,0,0,0-1.34-2.12,6.2,6.2,0,0,0-2.13-1.39,7.73,7.73,0,0,0-2.84-.5h-1.42Z"/>
  <path class="cls-1" d="M235.54,153.49H226.7l-1.42,4.13h-6.6l9.06-23.8h6.76l9.06,23.8H237Zm-1.64-4.71-2.78-7.92-2.78,7.92Z"/>
  <path class="cls-1" d="M266.07,157.62h-7.7l-5.91-9.15v9.15h-6.19v-23.8h9.63a9.47,9.47,0,0,1,3.48.58,6.63,6.63,0,0,1,3.9,3.93,8.31,8.31,0,0,1,.49,2.84,7,7,0,0,1-1.31,4.41,6.62,6.62,0,0,1-3.87,2.29Zm-13.61-13.16h1.17a4.48,4.48,0,0,0,2.81-.76,2.91,2.91,0,0,0,0-4.36,4.54,4.54,0,0,0-2.81-.76h-1.17Z"/>
  <path class="cls-2" d="M66.06,173.1a31.37,31.37,0,1,1,31.37-31.37A31.4,31.4,0,0,1,66.06,173.1Zm0-56.3A24.94,24.94,0,1,0,91,141.73,25,25,0,0,0,66.06,116.8Z"/>
  <path class="cls-2" d="M66.06,151.48a9.75,9.75,0,1,1,9.75-9.75A9.76,9.76,0,0,1,66.06,151.48Zm0-13.06a3.32,3.32,0,1,0,3.32,3.31A3.31,3.31,0,0,0,66.06,138.42Z"/>
  <path class="cls-2" d="M105.25,129.66a9.75,9.75,0,1,1,9.75-9.75A9.75,9.75,0,0,1,105.25,129.66Zm0-13.06a3.32,3.32,0,1,0,3.32,3.31A3.31,3.31,0,0,0,105.25,116.6Z"/>
  <path class="cls-2" d="M111.27,123.48a6.53,6.53,0,0,1-4.24,1.57,6.41,6.41,0,0,1-2.24-.41,42.49,42.49,0,1,1-4.17-7.33,6.5,6.5,0,0,1,4.32-5,48.69,48.69,0,1,0,6.33,11.14Z"/>
</svg>